<svg xmlns="http://www.w3.org/2000/svg" viewBox="0 0 550.1 600"><defs><style>.a{fill:#FD475D;}</style></defs><title>plogo</title><path class="a" d="M44.08,196.82c-11.15-28.47-24.68-56.7-21.18-88.76,2-18.76,11.66-25.14,29-16.5a89.5,89.5,0,0,1,18.56,12.37c32.93,28.54,32.83,28.63,67.12.39,3.21-2.64,6.52-5.15,9.83-7.67,10.79-8.21,8.68-14.17-2.71-19.77-21.78-10.7-44.24-18.57-68.45-22C24.66,47.62-1.16,69.72,0,122.31c1,45.28,19.51,85.15,41.89,127.92C52.76,230,50.83,214.05,44.08,196.82Z"/><path class="a" d="M496.79,54.73c-19.34-.6-38.34,1.57-56.31,9.16-14.17,6-37.62,5.58-39.42,20.76-1.66,14,20.53,21.19,32.14,31.49,14,12.43,25.7,11,38.59-2.35,8.54-8.85,19.07-16.21,29.76-22.46,16-9.36,25.16-2.24,28,14.72,1.86,10.91.05,21.52-3.42,32-7.35,22.14-14.32,44.4-21.75,66.51-4.17,12.38-5.58,24.17,7,39C537,197.16,555,152.28,548.89,101,545.29,71.05,527.47,55.68,496.79,54.73Z"/><path class="a" d="M496.84,284.4c-9.5-74.24-38.38-140.44-108.58-178.84-18.45-10.1-28.9-22-33.28-42.92C346,19.78,314.2-2.09,268.84.16c-40.19,2-69.47,29-73.85,71-1.71,16.39-9.21,25.69-22.79,32.7C108.08,137,73.21,191.77,60,260.76,44.5,341.23,42.9,423.1,40.37,504.67c-1.75,56.48,36.55,94.23,93,95,47.53.63,95.08.13,142.62.13v.17c45.87,0,91.75.18,137.62,0,60-.29,101.72-41.59,98.85-101.16C509,427.18,505.93,355.35,496.84,284.4ZM211.24,64.93c6.26-29.59,33.79-51.26,65.59-51,30.12.26,58.3,23,63,50.63,2.12,12.34-.16,20-15.07,17-33.05-6.66-66-5.42-99,.75C211,85.1,208.56,77.59,211.24,64.93ZM102.35,251.54C147.93,105,308.3,97,385.9,155.93c45.78,34.76,66.4,84.23,75.51,139.16,1.58,9.51.3,22.12-13.69,21.91-10.17-.15-12.56-9.42-11.8-18.6,7.92-96.33-78.29-164.12-162.26-158.55-74.75.23-129.16,41.41-156,117.47-3,8.46-2.47,25.09-15,20.93C91.75,274.65,99.55,260.54,102.35,251.54Zm352.09,275c-13.92.87-15.21-11.39-15.38-21.23-.65-36.66-.32-73.34-.64-110-.07-8.27-.34-16.76-2.22-24.74-1.82-7.73-7.6-13.21-16.22-13.07-9,.14-9.77,7.46-10.87,14.17-.68,4.11-1.24,8.26-2.29,12.27-1.72,6.54-3.64,13.54-12.17,13.62-9.25.09-14.8-6.89-14.38-14.33,1.87-33-19.36-32-42.48-31.75-56.67.69-113.35-.07-170,.39-36.63.3-47.08,11.33-47.35,48.33-.25,34.17.07,68.35-.28,102.52-.1,9.49,2.57,22.71-11.56,23.65-13.84.92-14.53-12-14.62-21.7-.4-40.83-1.53-81.74.5-122.48,1.89-38.05,23-56.46,62.09-57.13,41.66-.71,83.35-.16,125-.18,39.17,0,78.35-.4,117.52.07,46.73.56,65.69,19.3,66.33,65.11.54,38.33.79,76.67.56,115C465.9,513.63,467.19,525.7,454.44,526.5Z"/></svg>