<svg width="458" height="193" viewBox="0 0 458 193" fill="none" xmlns="http://www.w3.org/2000/svg">
<path d="M13.4 59.6812C10.0303 51.0362 5.90158 42.4822 6.96411 32.7452C7.57127 27.0426 10.516 25.1316 15.768 27.7402C17.7716 28.7412 19.7145 30.0152 21.4146 31.5016C31.4024 40.1466 31.372 40.1769 41.7849 31.6229C42.7563 30.8342 43.7582 30.0759 44.76 29.2872C48.0386 26.7999 47.4011 24.9799 43.9403 23.2812C37.3222 20.0356 30.522 17.6392 23.145 16.6079C7.51056 14.4239 -0.352194 21.1276 0.0121034 37.0829C0.315685 50.8239 5.93194 62.9269 12.7322 75.8792C16.0412 69.7519 15.434 64.9289 13.4 59.6812Z" fill="white"/>
<path d="M150.831 16.5777C144.972 16.3957 139.204 17.063 133.74 19.3683C129.429 21.1883 122.325 21.067 121.779 25.6777C121.262 29.9243 128.002 32.1083 131.523 35.2327C135.774 38.994 139.326 38.5693 143.242 34.535C145.822 31.8353 149.04 29.621 152.288 27.71C157.146 24.8587 159.939 27.0427 160.789 32.169C161.366 35.4753 160.819 38.6907 159.757 41.8757C157.51 48.5793 155.415 55.3437 153.138 62.0473C151.863 65.8087 151.438 69.388 155.264 73.8773C163.035 59.8027 168.5 46.183 166.648 30.622C165.555 21.5523 160.151 16.881 150.831 16.5777Z" fill="white"/>
<path d="M150.831 86.2533C147.947 63.746 139.174 43.6653 117.862 32.0173C112.246 28.9536 109.089 25.344 107.753 19.0043C105.021 5.9913 95.367 -0.621369 81.6147 0.0459642C69.4108 0.652631 60.5159 8.84263 59.1801 21.5826C58.664 26.5573 56.3872 29.3783 52.2584 31.5016C32.8293 41.542 22.2343 58.1646 18.227 79.0946C13.5215 103.513 13.0358 128.326 12.2768 153.078C11.7607 170.216 23.3575 181.652 40.5099 181.894C54.93 182.076 69.3804 181.925 83.8005 181.925C83.8005 181.955 83.8005 181.955 83.8005 181.985C97.7349 181.985 111.639 182.046 125.573 181.985C143.788 181.894 156.448 169.367 155.567 151.288C154.535 129.569 153.594 107.79 150.831 86.2533ZM64.1285 19.6716C66.041 10.693 74.3895 4.11063 84.0434 4.20163C93.1812 4.29263 101.742 11.1783 103.169 19.5503C103.807 23.2813 103.108 25.617 98.5849 24.707C88.5364 22.6746 78.5486 23.069 68.5304 24.9496C64.0678 25.799 63.3392 23.524 64.1285 19.6716ZM31.0685 76.2736C44.9118 31.8353 93.6062 29.4086 117.164 47.275C131.068 57.831 137.322 72.8156 140.084 89.499C140.57 92.3806 140.176 96.2026 135.925 96.142C132.829 96.0813 132.1 93.2906 132.343 90.5C134.741 61.289 108.573 40.723 83.0719 42.4216C60.3641 42.4823 43.8493 54.9796 35.7133 78.0633C34.8025 80.6416 34.9543 85.677 31.1596 84.403C27.8505 83.2806 30.2488 79.0036 31.0685 76.2736ZM137.959 159.69C133.74 159.963 133.345 156.232 133.284 153.26C133.072 142.127 133.193 131.025 133.102 119.893C133.072 117.375 133.011 114.797 132.434 112.401C131.888 110.065 130.127 108.397 127.516 108.427C124.784 108.457 124.541 110.702 124.207 112.734C123.995 113.978 123.843 115.252 123.509 116.465C122.993 118.437 122.416 120.56 119.805 120.591C116.982 120.621 115.312 118.498 115.434 116.253C116.011 106.243 109.544 106.546 102.531 106.637C85.3184 106.85 68.1054 106.607 50.9227 106.759C39.8116 106.85 36.624 110.186 36.5633 121.41C36.5026 131.784 36.5937 142.127 36.4722 152.501C36.4419 155.383 37.2615 159.387 32.9507 159.69C28.7613 159.963 28.5488 156.05 28.5184 153.108C28.397 140.732 28.063 128.326 28.6702 115.95C29.247 104.393 35.6526 98.8113 47.5226 98.6293C60.1819 98.417 72.8109 98.5686 85.4702 98.5686C97.3706 98.5686 109.271 98.4473 121.141 98.599C135.318 98.781 141.086 104.453 141.268 118.346C141.42 129.964 141.511 141.612 141.451 153.229C141.451 155.777 141.845 159.448 137.959 159.69Z" fill="white"/>
<path d="M193.452 20.4H200.992V54.62H222.22V61H193.452V20.4ZM239.592 29.68C244.155 29.68 247.635 30.782 250.032 32.986C252.468 35.1513 253.686 38.438 253.686 42.846V61H246.842V57.23C245.953 58.5833 244.677 59.6273 243.014 60.362C241.39 61.058 239.418 61.406 237.098 61.406C234.778 61.406 232.748 61.0193 231.008 60.246C229.268 59.434 227.915 58.332 226.948 56.94C226.02 55.5093 225.556 53.9047 225.556 52.126C225.556 49.342 226.581 47.1187 228.63 45.456C230.718 43.7547 233.985 42.904 238.432 42.904H246.436V42.44C246.436 40.2747 245.779 38.612 244.464 37.452C243.188 36.292 241.274 35.712 238.722 35.712C236.982 35.712 235.261 35.9827 233.56 36.524C231.897 37.0653 230.486 37.8193 229.326 38.786L226.484 33.508C228.108 32.2707 230.061 31.3233 232.342 30.666C234.623 30.0087 237.04 29.68 239.592 29.68ZM238.606 56.128C240.423 56.128 242.028 55.722 243.42 54.91C244.851 54.0593 245.856 52.8607 246.436 51.314V47.718H238.954C234.778 47.718 232.69 49.0907 232.69 51.836C232.69 53.1507 233.212 54.1947 234.256 54.968C235.3 55.7413 236.75 56.128 238.606 56.128ZM231.848 89.68C235.753 89.68 238.847 90.8207 241.128 93.102C243.409 95.3447 244.55 98.728 244.55 103.252V121H237.3V104.18C237.3 101.473 236.701 99.4433 235.502 98.09C234.303 96.698 232.583 96.002 230.34 96.002C227.904 96.002 225.951 96.814 224.482 98.438C223.013 100.023 222.278 102.305 222.278 105.282V121H215.028V104.18C215.028 101.473 214.429 99.4433 213.23 98.09C212.031 96.698 210.311 96.002 208.068 96.002C205.593 96.002 203.621 96.7947 202.152 98.38C200.721 99.9653 200.006 102.266 200.006 105.282V121H192.756V90.028H199.658V93.972C200.818 92.58 202.268 91.5167 204.008 90.782C205.748 90.0473 207.681 89.68 209.808 89.68C212.128 89.68 214.177 90.1247 215.956 91.014C217.773 91.8647 219.204 93.1407 220.248 94.842C221.524 93.218 223.167 91.9613 225.178 91.072C227.189 90.144 229.412 89.68 231.848 89.68ZM268.018 121.406C264.886 121.406 262.063 120.729 259.55 119.376C257.036 118.023 255.064 116.147 253.634 113.75C252.242 111.314 251.546 108.569 251.546 105.514C251.546 102.459 252.242 99.7333 253.634 97.336C255.064 94.9387 257.036 93.0633 259.55 91.71C262.063 90.3567 264.886 89.68 268.018 89.68C271.188 89.68 274.03 90.3567 276.544 91.71C279.057 93.0633 281.01 94.9387 282.402 97.336C283.832 99.7333 284.548 102.459 284.548 105.514C284.548 108.569 283.832 111.314 282.402 113.75C281.01 116.147 279.057 118.023 276.544 119.376C274.03 120.729 271.188 121.406 268.018 121.406ZM268.018 115.2C270.686 115.2 272.89 114.311 274.63 112.532C276.37 110.753 277.24 108.414 277.24 105.514C277.24 102.614 276.37 100.275 274.63 98.496C272.89 96.7173 270.686 95.828 268.018 95.828C265.35 95.828 263.146 96.7173 261.406 98.496C259.704 100.275 258.854 102.614 258.854 105.514C258.854 108.414 259.704 110.753 261.406 112.532C263.146 114.311 265.35 115.2 268.018 115.2ZM305.691 121.406C302.481 121.406 299.601 120.729 297.049 119.376C294.497 118.023 292.505 116.147 291.075 113.75C289.644 111.314 288.929 108.569 288.929 105.514C288.929 102.459 289.644 99.7333 291.075 97.336C292.505 94.9387 294.477 93.0633 296.991 91.71C299.543 90.3567 302.443 89.68 305.691 89.68C308.745 89.68 311.413 90.2987 313.695 91.536C316.015 92.7733 317.755 94.552 318.915 96.872L313.347 100.12C312.457 98.6893 311.336 97.626 309.983 96.93C308.668 96.1953 307.218 95.828 305.633 95.828C302.926 95.828 300.683 96.7173 298.905 98.496C297.126 100.236 296.237 102.575 296.237 105.514C296.237 108.453 297.107 110.811 298.847 112.59C300.625 114.33 302.887 115.2 305.633 115.2C307.218 115.2 308.668 114.852 309.983 114.156C311.336 113.421 312.457 112.339 313.347 110.908L318.915 114.156C317.716 116.476 315.957 118.274 313.637 119.55C311.355 120.787 308.707 121.406 305.691 121.406ZM342.473 89.68C346.378 89.68 349.51 90.8207 351.869 93.102C354.227 95.3833 355.407 98.7667 355.407 103.252V121H348.157V104.18C348.157 101.473 347.519 99.4433 346.243 98.09C344.967 96.698 343.149 96.002 340.791 96.002C338.123 96.002 336.015 96.814 334.469 98.438C332.922 100.023 332.149 102.324 332.149 105.34V121H324.899V77.964H332.149V93.624C333.347 92.348 334.817 91.3813 336.557 90.724C338.335 90.028 340.307 89.68 342.473 89.68ZM364.604 90.028H371.854V121H364.604V90.028ZM368.258 84.924C366.943 84.924 365.841 84.518 364.952 83.706C364.062 82.8553 363.618 81.8113 363.618 80.574C363.618 79.3367 364.062 78.312 364.952 77.5C365.841 76.6493 366.943 76.224 368.258 76.224C369.572 76.224 370.674 76.63 371.564 77.442C372.453 78.2153 372.898 79.2013 372.898 80.4C372.898 81.676 372.453 82.7587 371.564 83.648C370.713 84.4987 369.611 84.924 368.258 84.924ZM381.369 77.964H388.619V121H381.369V77.964ZM409.967 89.68C414.53 89.68 418.01 90.782 420.407 92.986C422.843 95.1513 424.061 98.438 424.061 102.846V121H417.217V117.23C416.328 118.583 415.052 119.627 413.389 120.362C411.765 121.058 409.793 121.406 407.473 121.406C405.153 121.406 403.123 121.019 401.383 120.246C399.643 119.434 398.29 118.332 397.323 116.94C396.395 115.509 395.931 113.905 395.931 112.126C395.931 109.342 396.956 107.119 399.005 105.456C401.093 103.755 404.36 102.904 408.807 102.904H416.811V102.44C416.811 100.275 416.154 98.612 414.839 97.452C413.563 96.292 411.649 95.712 409.097 95.712C407.357 95.712 405.636 95.9827 403.935 96.524C402.272 97.0653 400.861 97.8193 399.701 98.786L396.859 93.508C398.483 92.2707 400.436 91.3233 402.717 90.666C404.998 90.0087 407.415 89.68 409.967 89.68ZM408.981 116.128C410.798 116.128 412.403 115.722 413.795 114.91C415.226 114.059 416.231 112.861 416.811 111.314V107.718H409.329C405.153 107.718 403.065 109.091 403.065 111.836C403.065 113.151 403.587 114.195 404.631 114.968C405.675 115.741 407.125 116.128 408.981 116.128ZM223.09 137.964V181H216.13V176.998C214.931 178.467 213.443 179.569 211.664 180.304C209.924 181.039 207.991 181.406 205.864 181.406C202.887 181.406 200.199 180.749 197.802 179.434C195.443 178.119 193.587 176.263 192.234 173.866C190.881 171.43 190.204 168.646 190.204 165.514C190.204 162.382 190.881 159.617 192.234 157.22C193.587 154.823 195.443 152.967 197.802 151.652C200.199 150.337 202.887 149.68 205.864 149.68C207.913 149.68 209.789 150.028 211.49 150.724C213.191 151.42 214.641 152.464 215.84 153.856V137.964H223.09ZM206.734 175.2C208.474 175.2 210.04 174.813 211.432 174.04C212.824 173.228 213.926 172.087 214.738 170.618C215.55 169.149 215.956 167.447 215.956 165.514C215.956 163.581 215.55 161.879 214.738 160.41C213.926 158.941 212.824 157.819 211.432 157.046C210.04 156.234 208.474 155.828 206.734 155.828C204.994 155.828 203.428 156.234 202.036 157.046C200.644 157.819 199.542 158.941 198.73 160.41C197.918 161.879 197.512 163.581 197.512 165.514C197.512 167.447 197.918 169.149 198.73 170.618C199.542 172.087 200.644 173.228 202.036 174.04C203.428 174.813 204.994 175.2 206.734 175.2ZM261.69 165.688C261.69 166.191 261.652 166.906 261.574 167.834H237.272C237.698 170.115 238.8 171.933 240.578 173.286C242.396 174.601 244.638 175.258 247.306 175.258C250.709 175.258 253.512 174.137 255.716 171.894L259.602 176.36C258.21 178.023 256.451 179.279 254.324 180.13C252.198 180.981 249.8 181.406 247.132 181.406C243.73 181.406 240.733 180.729 238.142 179.376C235.552 178.023 233.541 176.147 232.11 173.75C230.718 171.314 230.022 168.569 230.022 165.514C230.022 162.498 230.699 159.791 232.052 157.394C233.444 154.958 235.358 153.063 237.794 151.71C240.23 150.357 242.976 149.68 246.03 149.68C249.046 149.68 251.734 150.357 254.092 151.71C256.49 153.025 258.346 154.9 259.66 157.336C261.014 159.733 261.69 162.517 261.69 165.688ZM246.03 155.48C243.71 155.48 241.738 156.176 240.114 157.568C238.529 158.921 237.562 160.739 237.214 163.02H254.788C254.479 160.777 253.532 158.96 251.946 157.568C250.361 156.176 248.389 155.48 246.03 155.48ZM301.852 149.68C304.868 149.68 307.555 150.337 309.914 151.652C312.311 152.967 314.186 154.823 315.54 157.22C316.893 159.617 317.57 162.382 317.57 165.514C317.57 168.646 316.893 171.43 315.54 173.866C314.186 176.263 312.311 178.119 309.914 179.434C307.555 180.749 304.868 181.406 301.852 181.406C297.676 181.406 294.37 180.014 291.934 177.23V192.252H284.684V150.028H291.586V154.088C292.784 152.619 294.254 151.517 295.994 150.782C297.772 150.047 299.725 149.68 301.852 149.68ZM301.04 175.2C303.708 175.2 305.892 174.311 307.594 172.532C309.334 170.753 310.204 168.414 310.204 165.514C310.204 162.614 309.334 160.275 307.594 158.496C305.892 156.717 303.708 155.828 301.04 155.828C299.3 155.828 297.734 156.234 296.342 157.046C294.95 157.819 293.848 158.941 293.036 160.41C292.224 161.879 291.818 163.581 291.818 165.514C291.818 167.447 292.224 169.149 293.036 170.618C293.848 172.087 294.95 173.228 296.342 174.04C297.734 174.813 299.3 175.2 301.04 175.2ZM335.881 149.68C340.444 149.68 343.924 150.782 346.321 152.986C348.757 155.151 349.975 158.438 349.975 162.846V181H343.131V177.23C342.242 178.583 340.966 179.627 339.303 180.362C337.679 181.058 335.707 181.406 333.387 181.406C331.067 181.406 329.037 181.019 327.297 180.246C325.557 179.434 324.204 178.332 323.237 176.94C322.309 175.509 321.845 173.905 321.845 172.126C321.845 169.342 322.87 167.119 324.919 165.456C327.007 163.755 330.274 162.904 334.721 162.904H342.725V162.44C342.725 160.275 342.068 158.612 340.753 157.452C339.477 156.292 337.563 155.712 335.011 155.712C333.271 155.712 331.55 155.983 329.849 156.524C328.186 157.065 326.775 157.819 325.615 158.786L322.773 153.508C324.397 152.271 326.35 151.323 328.631 150.666C330.912 150.009 333.329 149.68 335.881 149.68ZM334.895 176.128C336.712 176.128 338.317 175.722 339.709 174.91C341.14 174.059 342.145 172.861 342.725 171.314V167.718H335.243C331.067 167.718 328.979 169.091 328.979 171.836C328.979 173.151 329.501 174.195 330.545 174.968C331.589 175.741 333.039 176.128 334.895 176.128ZM368.849 181.406C366.336 181.406 363.881 181.077 361.483 180.42C359.086 179.763 357.172 178.931 355.741 177.926L358.525 172.416C359.917 173.344 361.58 174.098 363.513 174.678C365.485 175.219 367.419 175.49 369.313 175.49C373.644 175.49 375.809 174.349 375.809 172.068C375.809 170.985 375.249 170.231 374.127 169.806C373.045 169.381 371.285 168.975 368.849 168.588C366.297 168.201 364.209 167.757 362.585 167.254C361 166.751 359.608 165.881 358.409 164.644C357.249 163.368 356.669 161.609 356.669 159.366C356.669 156.427 357.887 154.088 360.323 152.348C362.798 150.569 366.123 149.68 370.299 149.68C372.426 149.68 374.553 149.931 376.679 150.434C378.806 150.898 380.546 151.536 381.899 152.348L379.115 157.858C376.486 156.311 373.528 155.538 370.241 155.538C368.115 155.538 366.491 155.867 365.369 156.524C364.287 157.143 363.745 157.974 363.745 159.018C363.745 160.178 364.325 161.009 365.485 161.512C366.684 161.976 368.521 162.421 370.995 162.846C373.47 163.233 375.5 163.677 377.085 164.18C378.671 164.683 380.024 165.533 381.145 166.732C382.305 167.931 382.885 169.632 382.885 171.836C382.885 174.736 381.629 177.056 379.115 178.796C376.602 180.536 373.18 181.406 368.849 181.406ZM418.245 165.688C418.245 166.191 418.206 166.906 418.129 167.834H393.827C394.252 170.115 395.354 171.933 397.133 173.286C398.95 174.601 401.193 175.258 403.861 175.258C407.264 175.258 410.067 174.137 412.271 171.894L416.157 176.36C414.765 178.023 413.006 179.279 410.879 180.13C408.752 180.981 406.355 181.406 403.687 181.406C400.284 181.406 397.288 180.729 394.697 179.376C392.106 178.023 390.096 176.147 388.665 173.75C387.273 171.314 386.577 168.569 386.577 165.514C386.577 162.498 387.254 159.791 388.607 157.394C389.999 154.958 391.913 153.063 394.349 151.71C396.785 150.357 399.53 149.68 402.585 149.68C405.601 149.68 408.288 150.357 410.647 151.71C413.044 153.025 414.9 154.9 416.215 157.336C417.568 159.733 418.245 162.517 418.245 165.688ZM402.585 155.48C400.265 155.48 398.293 156.176 396.669 157.568C395.084 158.921 394.117 160.739 393.769 163.02H411.343C411.034 160.777 410.086 158.96 408.501 157.568C406.916 156.176 404.944 155.48 402.585 155.48ZM439.129 181.406C435.997 181.406 433.174 180.729 430.661 179.376C428.148 178.023 426.176 176.147 424.745 173.75C423.353 171.314 422.657 168.569 422.657 165.514C422.657 162.459 423.353 159.733 424.745 157.336C426.176 154.939 428.148 153.063 430.661 151.71C433.174 150.357 435.997 149.68 439.129 149.68C442.3 149.68 445.142 150.357 447.655 151.71C450.168 153.063 452.121 154.939 453.513 157.336C454.944 159.733 455.659 162.459 455.659 165.514C455.659 168.569 454.944 171.314 453.513 173.75C452.121 176.147 450.168 178.023 447.655 179.376C445.142 180.729 442.3 181.406 439.129 181.406ZM439.129 175.2C441.797 175.2 444.001 174.311 445.741 172.532C447.481 170.753 448.351 168.414 448.351 165.514C448.351 162.614 447.481 160.275 445.741 158.496C444.001 156.717 441.797 155.828 439.129 155.828C436.461 155.828 434.257 156.717 432.517 158.496C430.816 160.275 429.965 162.614 429.965 165.514C429.965 168.414 430.816 170.753 432.517 172.532C434.257 174.311 436.461 175.2 439.129 175.2Z" fill="white"/>
</svg>
